%TF.GenerationSoftware,KiCad,Pcbnew,8.0.1*%
%TF.CreationDate,2024-04-05T19:32:32+05:30*%
%TF.ProjectId,TinyDrone,54696e79-4472-46f6-9e65-2e6b69636164,rev?*%
%TF.SameCoordinates,Original*%
%TF.FileFunction,Legend,Top*%
%TF.FilePolarity,Positive*%
%FSLAX46Y46*%
G04 Gerber Fmt 4.6, Leading zero omitted, Abs format (unit mm)*
G04 Created by KiCad (PCBNEW 8.0.1) date 2024-04-05 19:32:32*
%MOMM*%
%LPD*%
G01*
G04 APERTURE LIST*
%ADD10C,0.150000*%
%ADD11C,0.010000*%
%ADD12C,0.120000*%
%ADD13C,0.127000*%
%ADD14C,0.200000*%
G04 APERTURE END LIST*
D10*
X84289160Y-69084104D02*
X84765350Y-69084104D01*
X84193922Y-69369819D02*
X84527255Y-68369819D01*
X84527255Y-68369819D02*
X84860588Y-69369819D01*
X85193922Y-68703152D02*
X85193922Y-69560295D01*
X85193922Y-69560295D02*
X85146303Y-69655533D01*
X85146303Y-69655533D02*
X85051065Y-69703152D01*
X85051065Y-69703152D02*
X85003446Y-69703152D01*
X85193922Y-68369819D02*
X85146303Y-68417438D01*
X85146303Y-68417438D02*
X85193922Y-68465057D01*
X85193922Y-68465057D02*
X85241541Y-68417438D01*
X85241541Y-68417438D02*
X85193922Y-68369819D01*
X85193922Y-68369819D02*
X85193922Y-68465057D01*
X85670112Y-68703152D02*
X85670112Y-69560295D01*
X85670112Y-69560295D02*
X85622493Y-69655533D01*
X85622493Y-69655533D02*
X85527255Y-69703152D01*
X85527255Y-69703152D02*
X85479636Y-69703152D01*
X85670112Y-68369819D02*
X85622493Y-68417438D01*
X85622493Y-68417438D02*
X85670112Y-68465057D01*
X85670112Y-68465057D02*
X85717731Y-68417438D01*
X85717731Y-68417438D02*
X85670112Y-68369819D01*
X85670112Y-68369819D02*
X85670112Y-68465057D01*
X86146302Y-69369819D02*
X86146302Y-68703152D01*
X86146302Y-68369819D02*
X86098683Y-68417438D01*
X86098683Y-68417438D02*
X86146302Y-68465057D01*
X86146302Y-68465057D02*
X86193921Y-68417438D01*
X86193921Y-68417438D02*
X86146302Y-68369819D01*
X86146302Y-68369819D02*
X86146302Y-68465057D01*
X87384397Y-69369819D02*
X87384397Y-68369819D01*
X87384397Y-68369819D02*
X87622492Y-68369819D01*
X87622492Y-68369819D02*
X87765349Y-68417438D01*
X87765349Y-68417438D02*
X87860587Y-68512676D01*
X87860587Y-68512676D02*
X87908206Y-68607914D01*
X87908206Y-68607914D02*
X87955825Y-68798390D01*
X87955825Y-68798390D02*
X87955825Y-68941247D01*
X87955825Y-68941247D02*
X87908206Y-69131723D01*
X87908206Y-69131723D02*
X87860587Y-69226961D01*
X87860587Y-69226961D02*
X87765349Y-69322200D01*
X87765349Y-69322200D02*
X87622492Y-69369819D01*
X87622492Y-69369819D02*
X87384397Y-69369819D01*
X88527254Y-69369819D02*
X88432016Y-69322200D01*
X88432016Y-69322200D02*
X88384397Y-69274580D01*
X88384397Y-69274580D02*
X88336778Y-69179342D01*
X88336778Y-69179342D02*
X88336778Y-68893628D01*
X88336778Y-68893628D02*
X88384397Y-68798390D01*
X88384397Y-68798390D02*
X88432016Y-68750771D01*
X88432016Y-68750771D02*
X88527254Y-68703152D01*
X88527254Y-68703152D02*
X88670111Y-68703152D01*
X88670111Y-68703152D02*
X88765349Y-68750771D01*
X88765349Y-68750771D02*
X88812968Y-68798390D01*
X88812968Y-68798390D02*
X88860587Y-68893628D01*
X88860587Y-68893628D02*
X88860587Y-69179342D01*
X88860587Y-69179342D02*
X88812968Y-69274580D01*
X88812968Y-69274580D02*
X88765349Y-69322200D01*
X88765349Y-69322200D02*
X88670111Y-69369819D01*
X88670111Y-69369819D02*
X88527254Y-69369819D01*
X89289159Y-68703152D02*
X89289159Y-69369819D01*
X89289159Y-68798390D02*
X89336778Y-68750771D01*
X89336778Y-68750771D02*
X89432016Y-68703152D01*
X89432016Y-68703152D02*
X89574873Y-68703152D01*
X89574873Y-68703152D02*
X89670111Y-68750771D01*
X89670111Y-68750771D02*
X89717730Y-68846009D01*
X89717730Y-68846009D02*
X89717730Y-69369819D01*
X83308961Y-87479732D02*
X83247923Y-87449213D01*
X83247923Y-87449213D02*
X83186885Y-87388175D01*
X83186885Y-87388175D02*
X83095327Y-87296617D01*
X83095327Y-87296617D02*
X83034289Y-87266098D01*
X83034289Y-87266098D02*
X82973251Y-87266098D01*
X83003770Y-87418694D02*
X82942732Y-87388175D01*
X82942732Y-87388175D02*
X82881693Y-87327136D01*
X82881693Y-87327136D02*
X82851174Y-87205060D01*
X82851174Y-87205060D02*
X82851174Y-86991426D01*
X82851174Y-86991426D02*
X82881693Y-86869349D01*
X82881693Y-86869349D02*
X82942732Y-86808311D01*
X82942732Y-86808311D02*
X83003770Y-86777792D01*
X83003770Y-86777792D02*
X83125846Y-86777792D01*
X83125846Y-86777792D02*
X83186885Y-86808311D01*
X83186885Y-86808311D02*
X83247923Y-86869349D01*
X83247923Y-86869349D02*
X83278442Y-86991426D01*
X83278442Y-86991426D02*
X83278442Y-87205060D01*
X83278442Y-87205060D02*
X83247923Y-87327136D01*
X83247923Y-87327136D02*
X83186885Y-87388175D01*
X83186885Y-87388175D02*
X83125846Y-87418694D01*
X83125846Y-87418694D02*
X83003770Y-87418694D01*
X83888825Y-87418694D02*
X83522595Y-87418694D01*
X83705710Y-87418694D02*
X83705710Y-86777792D01*
X83705710Y-86777792D02*
X83644672Y-86869349D01*
X83644672Y-86869349D02*
X83583633Y-86930387D01*
X83583633Y-86930387D02*
X83522595Y-86960907D01*
X118010833Y-75464819D02*
X117677500Y-74988628D01*
X117439405Y-75464819D02*
X117439405Y-74464819D01*
X117439405Y-74464819D02*
X117820357Y-74464819D01*
X117820357Y-74464819D02*
X117915595Y-74512438D01*
X117915595Y-74512438D02*
X117963214Y-74560057D01*
X117963214Y-74560057D02*
X118010833Y-74655295D01*
X118010833Y-74655295D02*
X118010833Y-74798152D01*
X118010833Y-74798152D02*
X117963214Y-74893390D01*
X117963214Y-74893390D02*
X117915595Y-74941009D01*
X117915595Y-74941009D02*
X117820357Y-74988628D01*
X117820357Y-74988628D02*
X117439405Y-74988628D01*
X118867976Y-74798152D02*
X118867976Y-75464819D01*
X118629881Y-74417200D02*
X118391786Y-75131485D01*
X118391786Y-75131485D02*
X119010833Y-75131485D01*
X123731666Y-73189819D02*
X123731666Y-73904104D01*
X123731666Y-73904104D02*
X123684047Y-74046961D01*
X123684047Y-74046961D02*
X123588809Y-74142200D01*
X123588809Y-74142200D02*
X123445952Y-74189819D01*
X123445952Y-74189819D02*
X123350714Y-74189819D01*
X124731666Y-74189819D02*
X124160238Y-74189819D01*
X124445952Y-74189819D02*
X124445952Y-73189819D01*
X124445952Y-73189819D02*
X124350714Y-73332676D01*
X124350714Y-73332676D02*
X124255476Y-73427914D01*
X124255476Y-73427914D02*
X124160238Y-73475533D01*
X125678961Y-85109732D02*
X125617923Y-85079213D01*
X125617923Y-85079213D02*
X125556885Y-85018175D01*
X125556885Y-85018175D02*
X125465327Y-84926617D01*
X125465327Y-84926617D02*
X125404289Y-84896098D01*
X125404289Y-84896098D02*
X125343251Y-84896098D01*
X125373770Y-85048694D02*
X125312732Y-85018175D01*
X125312732Y-85018175D02*
X125251693Y-84957136D01*
X125251693Y-84957136D02*
X125221174Y-84835060D01*
X125221174Y-84835060D02*
X125221174Y-84621426D01*
X125221174Y-84621426D02*
X125251693Y-84499349D01*
X125251693Y-84499349D02*
X125312732Y-84438311D01*
X125312732Y-84438311D02*
X125373770Y-84407792D01*
X125373770Y-84407792D02*
X125495846Y-84407792D01*
X125495846Y-84407792D02*
X125556885Y-84438311D01*
X125556885Y-84438311D02*
X125617923Y-84499349D01*
X125617923Y-84499349D02*
X125648442Y-84621426D01*
X125648442Y-84621426D02*
X125648442Y-84835060D01*
X125648442Y-84835060D02*
X125617923Y-84957136D01*
X125617923Y-84957136D02*
X125556885Y-85018175D01*
X125556885Y-85018175D02*
X125495846Y-85048694D01*
X125495846Y-85048694D02*
X125373770Y-85048694D01*
X125892595Y-84468830D02*
X125923114Y-84438311D01*
X125923114Y-84438311D02*
X125984153Y-84407792D01*
X125984153Y-84407792D02*
X126136748Y-84407792D01*
X126136748Y-84407792D02*
X126197787Y-84438311D01*
X126197787Y-84438311D02*
X126228306Y-84468830D01*
X126228306Y-84468830D02*
X126258825Y-84529868D01*
X126258825Y-84529868D02*
X126258825Y-84590907D01*
X126258825Y-84590907D02*
X126228306Y-84682464D01*
X126228306Y-84682464D02*
X125862076Y-85048694D01*
X125862076Y-85048694D02*
X126258825Y-85048694D01*
X117393333Y-85424819D02*
X117060000Y-84948628D01*
X116821905Y-85424819D02*
X116821905Y-84424819D01*
X116821905Y-84424819D02*
X117202857Y-84424819D01*
X117202857Y-84424819D02*
X117298095Y-84472438D01*
X117298095Y-84472438D02*
X117345714Y-84520057D01*
X117345714Y-84520057D02*
X117393333Y-84615295D01*
X117393333Y-84615295D02*
X117393333Y-84758152D01*
X117393333Y-84758152D02*
X117345714Y-84853390D01*
X117345714Y-84853390D02*
X117298095Y-84901009D01*
X117298095Y-84901009D02*
X117202857Y-84948628D01*
X117202857Y-84948628D02*
X116821905Y-84948628D01*
X117726667Y-84424819D02*
X118345714Y-84424819D01*
X118345714Y-84424819D02*
X118012381Y-84805771D01*
X118012381Y-84805771D02*
X118155238Y-84805771D01*
X118155238Y-84805771D02*
X118250476Y-84853390D01*
X118250476Y-84853390D02*
X118298095Y-84901009D01*
X118298095Y-84901009D02*
X118345714Y-84996247D01*
X118345714Y-84996247D02*
X118345714Y-85234342D01*
X118345714Y-85234342D02*
X118298095Y-85329580D01*
X118298095Y-85329580D02*
X118250476Y-85377200D01*
X118250476Y-85377200D02*
X118155238Y-85424819D01*
X118155238Y-85424819D02*
X117869524Y-85424819D01*
X117869524Y-85424819D02*
X117774286Y-85377200D01*
X117774286Y-85377200D02*
X117726667Y-85329580D01*
X94188095Y-72094819D02*
X94188095Y-72904342D01*
X94188095Y-72904342D02*
X94235714Y-72999580D01*
X94235714Y-72999580D02*
X94283333Y-73047200D01*
X94283333Y-73047200D02*
X94378571Y-73094819D01*
X94378571Y-73094819D02*
X94569047Y-73094819D01*
X94569047Y-73094819D02*
X94664285Y-73047200D01*
X94664285Y-73047200D02*
X94711904Y-72999580D01*
X94711904Y-72999580D02*
X94759523Y-72904342D01*
X94759523Y-72904342D02*
X94759523Y-72094819D01*
X95759523Y-73094819D02*
X95188095Y-73094819D01*
X95473809Y-73094819D02*
X95473809Y-72094819D01*
X95473809Y-72094819D02*
X95378571Y-72237676D01*
X95378571Y-72237676D02*
X95283333Y-72332914D01*
X95283333Y-72332914D02*
X95188095Y-72380533D01*
X82441666Y-75149819D02*
X82441666Y-75864104D01*
X82441666Y-75864104D02*
X82394047Y-76006961D01*
X82394047Y-76006961D02*
X82298809Y-76102200D01*
X82298809Y-76102200D02*
X82155952Y-76149819D01*
X82155952Y-76149819D02*
X82060714Y-76149819D01*
X82822619Y-75149819D02*
X83441666Y-75149819D01*
X83441666Y-75149819D02*
X83108333Y-75530771D01*
X83108333Y-75530771D02*
X83251190Y-75530771D01*
X83251190Y-75530771D02*
X83346428Y-75578390D01*
X83346428Y-75578390D02*
X83394047Y-75626009D01*
X83394047Y-75626009D02*
X83441666Y-75721247D01*
X83441666Y-75721247D02*
X83441666Y-75959342D01*
X83441666Y-75959342D02*
X83394047Y-76054580D01*
X83394047Y-76054580D02*
X83346428Y-76102200D01*
X83346428Y-76102200D02*
X83251190Y-76149819D01*
X83251190Y-76149819D02*
X82965476Y-76149819D01*
X82965476Y-76149819D02*
X82870238Y-76102200D01*
X82870238Y-76102200D02*
X82822619Y-76054580D01*
X117043333Y-79794819D02*
X116710000Y-79318628D01*
X116471905Y-79794819D02*
X116471905Y-78794819D01*
X116471905Y-78794819D02*
X116852857Y-78794819D01*
X116852857Y-78794819D02*
X116948095Y-78842438D01*
X116948095Y-78842438D02*
X116995714Y-78890057D01*
X116995714Y-78890057D02*
X117043333Y-78985295D01*
X117043333Y-78985295D02*
X117043333Y-79128152D01*
X117043333Y-79128152D02*
X116995714Y-79223390D01*
X116995714Y-79223390D02*
X116948095Y-79271009D01*
X116948095Y-79271009D02*
X116852857Y-79318628D01*
X116852857Y-79318628D02*
X116471905Y-79318628D01*
X117948095Y-78794819D02*
X117471905Y-78794819D01*
X117471905Y-78794819D02*
X117424286Y-79271009D01*
X117424286Y-79271009D02*
X117471905Y-79223390D01*
X117471905Y-79223390D02*
X117567143Y-79175771D01*
X117567143Y-79175771D02*
X117805238Y-79175771D01*
X117805238Y-79175771D02*
X117900476Y-79223390D01*
X117900476Y-79223390D02*
X117948095Y-79271009D01*
X117948095Y-79271009D02*
X117995714Y-79366247D01*
X117995714Y-79366247D02*
X117995714Y-79604342D01*
X117995714Y-79604342D02*
X117948095Y-79699580D01*
X117948095Y-79699580D02*
X117900476Y-79747200D01*
X117900476Y-79747200D02*
X117805238Y-79794819D01*
X117805238Y-79794819D02*
X117567143Y-79794819D01*
X117567143Y-79794819D02*
X117471905Y-79747200D01*
X117471905Y-79747200D02*
X117424286Y-79699580D01*
D11*
%TO.C,Q1*%
X82040000Y-87661007D02*
X81637380Y-87661007D01*
X81637380Y-87260000D01*
X82040000Y-87260000D01*
X82040000Y-87661007D01*
G36*
X82040000Y-87661007D02*
G01*
X81637380Y-87661007D01*
X81637380Y-87260000D01*
X82040000Y-87260000D01*
X82040000Y-87661007D01*
G37*
D12*
%TO.C,R4*%
X117922776Y-75917500D02*
X118432224Y-75917500D01*
X117922776Y-76962500D02*
X118432224Y-76962500D01*
D13*
%TO.C,J1*%
X121140000Y-75620000D02*
X128540000Y-75620000D01*
X121140000Y-81370000D02*
X121140000Y-75620000D01*
X128540000Y-75620000D02*
X128540000Y-81370000D01*
X128540000Y-81370000D02*
X121140000Y-81370000D01*
D14*
X129380000Y-79020000D02*
G75*
G02*
X129180000Y-79020000I-100000J0D01*
G01*
X129180000Y-79020000D02*
G75*
G02*
X129380000Y-79020000I100000J0D01*
G01*
D11*
%TO.C,Q2*%
X124560000Y-85201007D02*
X124157380Y-85201007D01*
X124157380Y-84800000D01*
X124560000Y-84800000D01*
X124560000Y-85201007D01*
G36*
X124560000Y-85201007D02*
G01*
X124157380Y-85201007D01*
X124157380Y-84800000D01*
X124560000Y-84800000D01*
X124560000Y-85201007D01*
G37*
D12*
%TO.C,R3*%
X117305276Y-85877500D02*
X117814724Y-85877500D01*
X117305276Y-86922500D02*
X117814724Y-86922500D01*
%TO.C,U1*%
X97390000Y-65780000D02*
X113630000Y-65780000D01*
X97390000Y-73400000D02*
X96780000Y-73400000D01*
X97390000Y-73400000D02*
X97390000Y-65780000D01*
X97390000Y-90020000D02*
X97390000Y-89400000D01*
X99510000Y-90020000D02*
X97390000Y-90020000D01*
X113630000Y-65780000D02*
X113630000Y-73400000D01*
X113630000Y-89400000D02*
X113630000Y-90020000D01*
X113630000Y-90020000D02*
X111510000Y-90020000D01*
D13*
%TO.C,J3*%
X79850000Y-77580000D02*
X87250000Y-77580000D01*
X79850000Y-83330000D02*
X79850000Y-77580000D01*
X87250000Y-77580000D02*
X87250000Y-83330000D01*
X87250000Y-83330000D02*
X79850000Y-83330000D01*
D14*
X88090000Y-80980000D02*
G75*
G02*
X87890000Y-80980000I-100000J0D01*
G01*
X87890000Y-80980000D02*
G75*
G02*
X88090000Y-80980000I100000J0D01*
G01*
D12*
%TO.C,R5*%
X116955276Y-80247500D02*
X117464724Y-80247500D01*
X116955276Y-81292500D02*
X117464724Y-81292500D01*
%TD*%
M02*
