%TF.GenerationSoftware,KiCad,Pcbnew,8.0.1*%
%TF.CreationDate,2024-04-05T19:32:32+05:30*%
%TF.ProjectId,TinyDrone,54696e79-4472-46f6-9e65-2e6b69636164,rev?*%
%TF.SameCoordinates,Original*%
%TF.FileFunction,Soldermask,Top*%
%TF.FilePolarity,Negative*%
%FSLAX46Y46*%
G04 Gerber Fmt 4.6, Leading zero omitted, Abs format (unit mm)*
G04 Created by KiCad (PCBNEW 8.0.1) date 2024-04-05 19:32:32*
%MOMM*%
%LPD*%
G01*
G04 APERTURE LIST*
G04 Aperture macros list*
%AMRoundRect*
0 Rectangle with rounded corners*
0 $1 Rounding radius*
0 $2 $3 $4 $5 $6 $7 $8 $9 X,Y pos of 4 corners*
0 Add a 4 corners polygon primitive as box body*
4,1,4,$2,$3,$4,$5,$6,$7,$8,$9,$2,$3,0*
0 Add four circle primitives for the rounded corners*
1,1,$1+$1,$2,$3*
1,1,$1+$1,$4,$5*
1,1,$1+$1,$6,$7*
1,1,$1+$1,$8,$9*
0 Add four rect primitives between the rounded corners*
20,1,$1+$1,$2,$3,$4,$5,0*
20,1,$1+$1,$4,$5,$6,$7,0*
20,1,$1+$1,$6,$7,$8,$9,0*
20,1,$1+$1,$8,$9,$2,$3,0*%
G04 Aperture macros list end*
%ADD10RoundRect,0.102000X-0.350000X-0.500000X0.350000X-0.500000X0.350000X0.500000X-0.350000X0.500000X0*%
%ADD11RoundRect,0.237500X-0.250000X-0.237500X0.250000X-0.237500X0.250000X0.237500X-0.250000X0.237500X0*%
%ADD12RoundRect,0.102000X-0.787500X-0.787500X0.787500X-0.787500X0.787500X0.787500X-0.787500X0.787500X0*%
%ADD13C,1.779000*%
%ADD14R,2.500000X1.000000*%
%ADD15R,1.000000X1.800000*%
%ADD16RoundRect,0.102000X0.787500X0.787500X-0.787500X0.787500X-0.787500X-0.787500X0.787500X-0.787500X0*%
%ADD17C,1.100000*%
%ADD18R,2.030000X1.730000*%
%ADD19O,2.030000X1.730000*%
%ADD20R,2.200000X2.200000*%
%ADD21O,2.200000X2.200000*%
G04 APERTURE END LIST*
D10*
%TO.C,Q1*%
X81990000Y-88460000D03*
X83890000Y-88460000D03*
X82940000Y-85860000D03*
%TD*%
D11*
%TO.C,R4*%
X117265000Y-76440000D03*
X119090000Y-76440000D03*
%TD*%
D12*
%TO.C,J1*%
X126090000Y-79020000D03*
D13*
X123590000Y-79020000D03*
%TD*%
D10*
%TO.C,Q2*%
X124510000Y-86000000D03*
X126410000Y-86000000D03*
X125460000Y-83400000D03*
%TD*%
D11*
%TO.C,R3*%
X116647500Y-86400000D03*
X118472500Y-86400000D03*
%TD*%
D14*
%TO.C,U1*%
X97910000Y-74400000D03*
X97910000Y-76400000D03*
X97910000Y-78400000D03*
X97910000Y-80400000D03*
X97910000Y-82400000D03*
X97910000Y-84400000D03*
X97910000Y-86400000D03*
X97910000Y-88400000D03*
D15*
X100510000Y-89900000D03*
X102510000Y-89900000D03*
X104510000Y-89900000D03*
X106510000Y-89900000D03*
X108510000Y-89900000D03*
X110510000Y-89900000D03*
D14*
X113110000Y-88400000D03*
X113110000Y-86400000D03*
X113110000Y-84400000D03*
X113110000Y-82400000D03*
X113110000Y-80400000D03*
X113110000Y-78400000D03*
X113110000Y-76400000D03*
X113110000Y-74400000D03*
%TD*%
D12*
%TO.C,J3*%
X84800000Y-80980000D03*
D13*
X82300000Y-80980000D03*
%TD*%
D11*
%TO.C,R5*%
X116297500Y-80770000D03*
X118122500Y-80770000D03*
%TD*%
D16*
%TO.C,J2*%
X111960000Y-100765000D03*
D13*
X114460000Y-100765000D03*
%TD*%
D17*
%TO.C,J5*%
X128010000Y-94350000D03*
D18*
X125850000Y-99430000D03*
D19*
X125850000Y-96890000D03*
X125850000Y-94350000D03*
X125850000Y-91810000D03*
%TD*%
D20*
%TO.C,D1*%
X84910000Y-100050000D03*
D21*
X95070000Y-100050000D03*
%TD*%
M02*
